<svg viewbox="0 0 80 80" xmlns="http://www.w3.org/2000/svg" xmlns:xlink="http://www.w3.org/1999/xlink" >

<circle cx="40" cy="40" r="38" stroke="black" stroke-width="4" fill="none" />
<g transform="translate(0,80) scale(0.05,-0.05)">
<path transform="translate(70,560)" stroke="black" fill="black" d="M565 148q0 39 -47 39q-24 0 -31 -39q-7 -46 -20 -56q-12 27 -20.5 48.5t-14.5 40.5q71 202 71 264q0 51 -40 51q-30 0 -52 -75q-6 -26 -13 -52t-12 -52q-51 159 -153 159q-87 0 -144 -79q-55 -74 -55 -169q0 -100 37 -160q45 -70 129 -70q65 0 105 20q47 26 75 84 q11 -31 18 -49.5t11 -26.5q21 -33 64 -33q24 0 39 13q10 11 32 67q21 54 21 75zM347 214q-14 -33 -25 -54t-19 -30q-32 -40 -89 -42q-102 -3 -102 118q0 53 28 108q35 63 81 63q80 0 126 -163z" />
<path transform="translate(930,560)" stroke="black" fill="black" d="M545 240q0 23 -2.5 53.5t-8.5 68.5q-13 98 -31 106q-6 4 -17 4q-14 0 -29 -11q-16 -13 -16 -28q0 -36 11 -99q5 -33 8.5 -57.5t3.5 -41.5q0 -140 -73 -140q-50 0 -50 111q0 5 1.5 26t1.5 33q0 70 -36 70q-33 0 -44 -63q-6 -30 -11.5 -58.5t-10.5 -57.5q-21 -62 -74 -62 q-31 0 -31 60q0 62 48.5 181t48.5 120q0 32 -38 32q-53 0 -101 -151q-40 -126 -40 -202q0 -139 95 -139q50 0 81 17q30 19 52 70q14 -46 29 -63q20 -21 60 -21q97 0 139 70q34 57 34 172z" />
<path transform="translate(500,950)" stroke="black" fill="black" d="M500 475h-403q-15 0 -23 -15t-8 -30q-2 -42 31 -42h6v-366q0 -18 15 -25t29 -7q18 1 30.5 8t12.5 24l-1 366h217l1 -364q0 -39 45 -40q17 1 29.5 10t12.5 30v364h6q14 0 22 11q8 14 10 31q4 45 -32 45z" />
<path transform="translate(520,150)" stroke="black" fill="black" d="M191 20l111 281l105 -280q16 -46 60 -34q18 5 27 14q9 12 4 26l-234 631q-7 22 -24 28q-18 6 -33 0q-17 -8 -24 -24q-9 -17 0 -40l76 -200l-158 -406q-4 -15 6 -25q8 -9 25 -11q18 -2 33 5q16 10 26 35z" />
<!--path transform="translate(650,600) scale(2,2)" stroke="black" fill="red" d="M520 325q0 94 -64 158q-65 65 -158 65q-96 0 -157 -63q-62 -64 -62 -158q0 -95 60 -158q61 -64 155 -64q98 0 162 61t64 159zM430 411q-43 -37 -97 -41q-1 8 -1.5 15.5t-0.5 12.5q0 8 0.5 17.5t1.5 22.5q2 16 3 26t1 15q60 -23 93 -68zM459 308q0 -37 -35 -78
q-17 16 -35 36.5t-37 45.5q34 13 59 22t42 14q6 -21 6 -40zM270 437q0 1 -1.5 -15.5t-5.5 -49.5q-41 7 -99 39q43 53 102 70q2 -17 3 -28t1 -16zM372 185q-37 -19 -73 -19q-42 0 -77 20q26 28 45.5 48.5t32.5 34.5q20 -15 38 -40q29 -39 34 -44zM250 311q-18 -38 -74 -79
q-35 41 -35 84q0 16 3 34q5 -2 18.5 -6t35.5 -11q34 -11 52 -22z" /-->
</g>
</svg>
